<svg version="1.0" xmlns="http://www.w3.org/2000/svg"
 width="3840.000000pt" height="2160.000000pt" viewBox="0 0 3840.000000 2160.000000"
 preserveAspectRatio="xMidYMid meet">

<g transform="translate(0.000000,2160.000000) scale(0.100000,-0.100000)"
fill="#000000" stroke="none">
<path d="M8600 10800 l0 -10600 10600 0 10600 0 0 10600 0 10600 -10600 0
-10600 0 0 -10600z m16433 3881 l27 -11 0 -106 c0 -97 -1 -106 -17 -99 -126
54 -266 35 -322 -44 -44 -61 -54 -108 -59 -283 l-4 -168 171 0 171 0 0 -100 0
-100 -170 0 -170 0 0 -625 0 -625 -115 0 -115 0 0 625 0 625 -125 0 -125 0 0
100 0 100 125 0 125 0 0 154 c0 184 9 239 55 333 56 114 176 205 306 233 54
11 204 6 242 -9z m-8165 -61 c131 -80 74 -280 -81 -280 -84 0 -140 47 -153
127 -8 55 23 125 68 153 44 27 122 27 166 0z m-698 -1080 l0 -1020 -126 0
-126 0 5 828 c3 455 8 843 11 862 4 19 -6 -3 -22 -50 -22 -62 -594 -1358 -713
-1613 -12 -27 -15 -28 -73 -25 l-60 3 -91 205 c-51 113 -209 468 -353 790
-143 322 -269 617 -279 655 -18 69 -18 56 -15 -792 l3 -863 -116 0 -115 0 0
1015 0 1015 159 0 158 0 336 -762 c184 -420 345 -791 357 -826 13 -34 24 -61
26 -59 2 2 26 60 53 128 27 68 187 430 356 804 169 374 311 690 316 703 8 21
12 22 159 22 l150 0 0 -1020z m9390 640 l0 -210 180 0 181 0 -3 -102 -3 -103
-175 0 -175 0 0 -470 0 -471 25 -48 c35 -68 81 -91 180 -91 52 0 86 5 109 18
19 9 37 17 41 17 3 0 6 -42 5 -92 l-1 -93 -34 -16 c-81 -39 -251 -43 -347 -9
-96 34 -151 89 -195 199 -22 55 -23 65 -28 556 l-5 500 -122 0 -123 0 0 102 0
103 125 0 125 0 2 177 3 177 100 33 c55 17 108 32 118 32 16 1 17 -15 17 -209z
m-7335 -198 c39 -10 84 -25 100 -33 l30 -14 3 -118 c1 -64 0 -117 -2 -117 -3
0 -34 15 -68 34 -221 120 -469 89 -626 -79 -105 -112 -152 -243 -152 -425 0
-179 49 -317 146 -413 89 -90 206 -136 345 -137 79 0 201 34 278 77 36 21 69
40 74 41 4 2 7 -46 7 -106 l0 -109 -67 -30 c-104 -47 -201 -65 -333 -65 -258
1 -444 99 -574 299 -87 135 -122 286 -113 481 11 231 76 391 217 532 69 69
101 94 170 127 80 39 181 68 260 76 77 8 239 -3 305 -21z m2338 -1 c115 -30
191 -74 277 -161 86 -86 127 -156 166 -285 26 -84 28 -103 28 -275 1 -164 -2
-194 -22 -263 -90 -311 -328 -497 -650 -510 -303 -12 -536 112 -661 352 -62
119 -85 226 -84 396 0 167 23 277 83 400 100 204 285 334 523 364 97 13 253 4
340 -18z m2930 0 c113 -30 191 -74 277 -161 86 -85 135 -174 172 -306 18 -68
22 -105 22 -259 0 -152 -4 -192 -22 -256 -70 -255 -263 -442 -512 -495 -108
-23 -284 -21 -383 5 -247 65 -423 249 -482 506 -35 149 -28 358 17 505 82 268
290 443 570 479 98 13 254 5 341 -18z m-4063 9 l35 -10 1 -120 c1 -84 -2 -119
-10 -116 -97 42 -219 46 -291 9 -60 -31 -122 -100 -161 -178 -58 -119 -64
-175 -64 -641 l0 -414 -120 0 -120 0 0 730 0 730 120 0 120 0 0 -142 1 -143
29 62 c52 107 144 192 248 229 44 16 163 18 212 4z m2670 -13 c30 -9 67 -20
83 -26 l27 -11 0 -118 0 -118 -67 33 c-97 47 -182 66 -293 66 -118 0 -191 -25
-244 -83 -42 -47 -50 -73 -44 -145 8 -100 58 -141 280 -232 186 -75 266 -120
329 -183 84 -84 104 -133 104 -255 0 -93 -2 -105 -33 -167 -82 -167 -263 -253
-532 -252 -142 1 -242 19 -343 64 l-47 21 0 124 c0 69 2 125 4 125 2 0 30 -16
62 -35 114 -69 215 -96 355 -97 211 -1 309 71 297 217 -9 102 -68 151 -282
236 -267 106 -346 160 -404 279 -24 49 -27 66 -27 160 0 95 3 111 28 162 55
111 193 209 342 242 88 20 324 15 405 -7z m-5200 -732 l0 -725 -120 0 -120 0
0 725 0 725 120 0 120 0 0 -725z m-1119 -2730 c1508 -2364 1885 -2957 1924
-3025 l37 -65 -6 50 c-26 231 -29 431 -30 2388 -1 1127 1 2052 4 2058 4 6 125
8 311 7 l304 -3 3 -2642 2 -2643 -373 0 c-344 0 -375 1 -389 18 -23 26 -2684
4153 -2754 4270 -34 56 -76 136 -94 177 -31 72 -57 101 -44 51 18 -73 22 -461
23 -2393 l1 -2123 -310 0 -310 0 0 2645 0 2645 401 -2 401 -3 899 -1410z
m6619 1130 l0 -285 -1030 0 -1030 0 0 -875 0 -875 955 0 955 0 0 -280 0 -280
-955 0 -955 0 0 -920 0 -920 1090 0 1090 0 0 -285 0 -285 -1397 2 -1398 3 -3
2643 -2 2642 1340 0 1340 0 0 -285z m4258 -2 l2 -283 -760 0 -760 0 -2 -2357
-3 -2358 -310 0 -310 0 -3 2358 -2 2357 -760 0 -760 0 0 278 c0 153 3 282 7
285 3 4 828 6 1832 5 l1826 -3 3 -282z m-13902 -4293 c76 -37 166 -129 201
-207 50 -108 41 -273 -20 -373 -166 -270 -538 -280 -707 -19 -45 70 -62 133
-62 232 1 124 43 220 132 300 129 116 304 142 456 67z"/>
<path d="M20240 13799 c-234 -39 -380 -252 -381 -554 0 -175 29 -279 105 -382
91 -125 200 -175 376 -175 147 0 247 39 330 128 87 95 130 233 130 427 0 316
-121 502 -359 553 -74 15 -120 16 -201 3z"/>
<path d="M23170 13799 c-238 -41 -383 -254 -382 -559 0 -195 45 -323 149 -428
91 -92 212 -133 368 -125 286 15 436 228 423 597 -4 107 -10 146 -32 211 -53
159 -150 256 -292 294 -61 16 -171 21 -234 10z"/>
</g>
</svg>
